<svg xmlns="http://www.w3.org/2000/svg" id="Layer_1" viewBox="0 0 511.5 167.3"><style>.st0{fill:#A6A8AB;} .st1{fill:#FFFFFF;}</style><path d="M511.5 144.7c0 12.5-10.1 22.6-22.6 22.6H22.6C10.1 167.3 0 157.2 0 144.7V22.6C0 10.1 10.1 0 22.6 0h466.3c12.5 0 22.6 10.1 22.6 22.6v122.1z" class="st0"/><path d="M88.3 28.6H46.7c-5 0-9 4-9 9V130c0 5 4 9 9 9h41.7c5 0 9-4 9-9V37.7c0-5-4.1-9.1-9.1-9.1zM67.5 132.4c-3.3 0-6-2.7-6-6s2.7-6 6-6 6 2.7 6 6-2.7 6-6 6zm22.8-15H44.7V49.3h45.5v68.1zm41.2-72.3l-2.5 7.7h-3.3l8.3-24.4h3.8l8.3 24.4h-3.4l-2.6-7.7h-8.6zm8-2.5l-2.4-7c-.5-1.6-.9-3-1.2-4.4h-.1c-.3 1.4-.7 2.9-1.2 4.4l-2.4 7.1h7.3zm9.9-7.4l3.4 9.8c.6 1.6 1.1 3.1 1.4 4.5h.1c.4-1.4.9-2.9 1.5-4.5l3.4-9.8h3.3l-6.9 17.5h-3L146 35.2h3.4zm27.8 13.3c0 1.5.1 3 .3 4.2h-2.9l-.3-2.2h-.1c-.9 1.4-2.9 2.6-5.4 2.6-3.5 0-5.4-2.5-5.4-5 0-4.2 3.8-6.5 10.5-6.5v-.4c0-1.4-.4-4.1-4-4-1.7 0-3.4.5-4.6 1.3l-.7-2.1c1.4-.9 3.6-1.5 5.8-1.5 5.4 0 6.7 3.7 6.7 7.2v6.4zm-3.1-4.7c-3.5-.1-7.4.5-7.4 3.9 0 2.1 1.4 3 3 3 2.3 0 3.8-1.4 4.3-2.9.1-.3.1-.7.1-1v-3zm9.5-11.8c-1.2 0-2-.9-2-2.1 0-1.1.8-2 2.1-2 1.2 0 2 .9 2 2 0 1.2-.8 2.1-2.1 2.1zm-1.5 20.7V35.2h3.2v17.5h-3.2zm8.3-25.7h3.2v25.7h-3.2V27zM211 48.5c0 1.5.1 3 .3 4.2h-2.9l-.3-2.2h-.1c-.9 1.4-2.9 2.6-5.4 2.6-3.5 0-5.4-2.5-5.4-5 0-4.2 3.8-6.5 10.5-6.5v-.4c0-1.4-.4-4.1-4-4-1.7 0-3.4.5-4.6 1.3l-.7-2.1c1.4-.9 3.6-1.5 5.8-1.5 5.4 0 6.7 3.7 6.7 7.2v6.4zm-3.1-4.7c-3.5-.1-7.4.5-7.4 3.9 0 2.1 1.4 3 3 3 2.3 0 3.8-1.4 4.3-2.9.1-.3.1-.7.1-1v-3zm8-16.8h3.2v11h.1c1.1-2 3.1-3.2 6-3.2 4.3 0 7.4 3.6 7.4 8.9 0 6.3-4 9.4-7.9 9.4-2.5 0-4.5-1-5.9-3.3h-.1l-.2 2.9h-2.7c.1-1.2.1-3 .1-4.5V27zm3.2 18.7c0 .4 0 .8.1 1.2.6 2.2 2.5 3.7 4.8 3.7 3.4 0 5.3-2.7 5.3-6.7 0-3.5-1.8-6.5-5.2-6.5-2.2 0-4.2 1.5-4.8 3.9-.1.4-.2.8-.2 1.3v3.1zM236.3 27h3.2v25.7h-3.2V27zm10.1 17.5c.1 4.3 2.8 6.1 6 6.1 2.3 0 3.7-.4 4.8-.9l.6 2.2c-1.1.5-3.1 1.1-5.9 1.1-5.4 0-8.6-3.6-8.6-8.8 0-5.3 3.1-9.5 8.3-9.5 5.7 0 7.2 5 7.2 8.2 0 .7 0 1.2-.1 1.5l-12.3.1zm9.3-2.3c0-2-.8-5.2-4.4-5.2-3.3 0-4.6 3-4.9 5.2h9.3zm21.5 10.9c-4.7 0-8.4-3.5-8.4-9 0-5.9 3.9-9.3 8.7-9.3 5 0 8.4 3.7 8.4 9 0 6.5-4.5 9.3-8.7 9.3zm.1-2.4c3 0 5.3-2.9 5.3-6.8 0-3-1.5-6.7-5.2-6.7S272 40.7 272 44c0 3.9 2.2 6.7 5.3 6.7zM289.7 40c0-1.8 0-3.3-.2-4.7h2.8l.2 2.9h.1c.9-1.6 2.9-3.3 5.8-3.3 2.4 0 6.2 1.4 6.2 7.5v10.5h-3.2V42.6c0-2.8-1-5.2-4.1-5.2-2.1 0-3.7 1.5-4.3 3.3-.1.4-.2 1-.2 1.5v10.6h-3.2V40zm31.3-9v4.2h4.6v2.4H321V47c0 2.2.6 3.4 2.4 3.4.9 0 1.4-.1 1.8-.2l.1 2.4c-.6.2-1.6.4-2.8.4-1.5 0-2.7-.5-3.4-1.3-.9-1-1.2-2.5-1.2-4.6v-9.6h-2.7v-2.4h2.7V32l3.1-1zm7.9-4h3.2v11h.1c.5-.9 1.3-1.7 2.3-2.2.9-.6 2.1-.9 3.3-.9 2.3 0 6.1 1.4 6.1 7.5v10.4h-3.2V42.7c0-2.9-1.1-5.2-4.1-5.2-2.1 0-3.7 1.4-4.3 3.2-.2.4-.2.9-.2 1.5v10.6h-3.2V27zm21.7 17.5c.1 4.3 2.8 6.1 6 6.1 2.3 0 3.7-.4 4.9-.9l.5 2.3c-1.1.5-3.1 1.1-5.9 1.1-5.4 0-8.6-3.6-8.6-8.8 0-5.3 3.1-9.5 8.3-9.5 5.7 0 7.2 5 7.2 8.2 0 .7 0 1.2-.1 1.5h-12.3zm9.3-2.3c0-2-.8-5.2-4.4-5.2-3.3 0-4.6 3-4.9 5.2h9.3zM375.8 32c-1.2 0-2-.9-2-2.1 0-1.1.8-2 2.1-2 1.2 0 2 .9 2 2 0 1.2-.8 2.1-2.1 2.1zm-1.6 20.7V35.2h3.2v17.5h-3.2zm8.4-24c1.5-.3 3.5-.5 6-.5 3.1 0 5.4.7 6.8 2 1.3 1.2 2.2 2.9 2.2 5.1 0 2.2-.7 3.9-1.9 5.2-1.7 1.8-4.4 2.7-7.5 2.7-.9 0-1.8 0-2.5-.2v9.8h-3.1V28.7zm3.2 11.7c.7.2 1.6.3 2.6.3 3.8 0 6.1-1.9 6.1-5.2 0-3.3-2.3-4.8-5.8-4.8-1.4 0-2.4.1-3 .3v9.4zM401.4 27h3.2v11h.1c.5-.9 1.3-1.7 2.3-2.2.9-.6 2.1-.9 3.3-.9 2.4 0 6.1 1.4 6.1 7.5v10.4h-3.2V42.7c0-2.9-1.1-5.2-4.1-5.2-2.1 0-3.7 1.4-4.3 3.2-.2.4-.2.9-.2 1.5v10.6h-3.2V27zm27 26.1c-4.7 0-8.4-3.5-8.4-9 0-5.9 3.9-9.3 8.7-9.3 5 0 8.4 3.7 8.4 9 .1 6.5-4.5 9.3-8.7 9.3zm.1-2.4c3 0 5.3-2.9 5.3-6.8 0-3-1.5-6.7-5.2-6.7s-5.4 3.5-5.4 6.8c.1 3.9 2.2 6.7 5.3 6.7zM441 40c0-1.8 0-3.3-.1-4.7h2.8l.2 2.9h.1c.9-1.6 2.9-3.3 5.8-3.3 2.4 0 6.2 1.4 6.2 7.5v10.5h-3.2V42.6c0-2.8-1.1-5.2-4.1-5.2-2.1 0-3.7 1.5-4.3 3.3-.1.4-.2 1-.2 1.5v10.6H441V40zm21.7 4.5c.1 4.3 2.8 6.1 6 6.1 2.3 0 3.7-.4 4.8-.9l.6 2.2c-1.1.5-3.1 1.1-5.9 1.1-5.4 0-8.6-3.6-8.6-8.8 0-5.3 3.1-9.5 8.2-9.5 5.7 0 7.2 5 7.2 8.2 0 .7 0 1.2-.1 1.5l-12.2.1zm9.3-2.3c0-2-.8-5.2-4.4-5.2-3.3 0-4.6 3-4.9 5.2h9.3zM146.5 69.3L125 132.4h9.8l6.4-19.4H162l6.6 19.4h10.1l-21.5-63.1h-10.7zm5.1 10.3c.7 2.8 1.5 5.7 2.5 8.9l5.8 16.7h-16.5l5.7-16.9c.9-2.6 1.7-5.6 2.5-8.7zm54.9 6c-6.5 0-11.7 2.5-15.2 7.3l-.4-6.3h-8.7l.1.8c.3 3.9.4 8.2.4 14.4v48.7h9.6v-22.7c3 3.5 7.7 5.6 13.1 5.6 5.6 0 10.7-2.2 14.5-6.2 4.2-4.4 6.4-10.8 6.4-18.4 0-6.7-1.9-12.5-5.6-16.8-3.7-4.1-8.7-6.4-14.2-6.4zm-2.4 7.9c8.5 0 12.3 7.9 12.3 15.7 0 10.1-4.9 16.3-12.7 16.3-5.3 0-10-3.6-11.3-8.9-.2-.8-.3-1.9-.3-3.1v-7.7c0-.7.2-1.5.3-2.4 0-.3.1-.5.1-.8 1.5-5.3 6.2-9.1 11.6-9.1zm51.6-7.9c-6.5 0-11.7 2.5-15.2 7.3l-.4-6.3h-8.7v.8c.3 3.9.4 8.2.4 14.4v48.7h9.6v-22.7c3 3.5 7.7 5.6 13.1 5.6 5.6 0 10.7-2.2 14.5-6.2 4.2-4.4 6.4-10.8 6.4-18.4 0-6.7-1.9-12.5-5.6-16.8-3.6-4.1-8.6-6.4-14.1-6.4zm-2.4 7.9c8.5 0 12.3 7.9 12.3 15.7 0 10.1-4.9 16.3-12.7 16.3-5.3 0-10-3.6-11.3-8.9-.2-.8-.3-1.9-.3-3.1v-7.7c0-.7.2-1.5.3-2.4 0-.3.1-.5.1-.8 1.5-5.3 6.2-9.1 11.6-9.1zm64 2.5c-8.9-3.5-11.8-6.2-11.8-11.2 0-4.2 3.4-8.5 10.9-8.5 6.2 0 10.2 2.2 11.2 2.8l.8.5 2.7-8-.5-.3c-1.6-.9-6.2-3.1-13.9-3.1-12.2 0-20.7 7.2-20.7 17.5 0 8.3 5.3 14.1 16.8 18.3 8.1 3 11.1 6.1 11.1 11.5 0 6-4.7 9.8-12.1 9.8-4.9 0-9.9-1.4-13.8-3.9l-.8-.5-2.6 8.2.5.3c3.6 2.4 10.4 4.2 16.1 4.2 16.4 0 22.2-10 22.2-18.6 0-9-4.6-14.5-16.1-19zm33.3-20.3l-9.4 2.9v7.9h-6.9v7.6h6.9v23.4c0 5.7 1.1 9.6 3.3 12.1 2.1 2.3 5.4 3.6 9.2 3.6 3.6 0 6.2-.7 7.4-1.1l.5-.2-.5-7.6-.9.3c-1.2.4-2.4.5-4.4.5-3.7 0-5.3-2.3-5.3-7.8v-23H362v-7.6h-11.5v-11zm35.2 9.9c-13.4 0-22.7 10-22.7 24.3 0 13.9 9 23.5 22 23.5h.1c10.9 0 22.7-7.6 22.7-24.3 0-6.8-2.1-12.6-6.1-16.9-4-4.3-9.5-6.6-16-6.6zm-.3 7.6c8.6 0 12.5 8.4 12.5 16.2 0 9.6-5.3 16.5-12.7 16.5h-.1c-7.2 0-12.5-6.8-12.5-16.3.1-8.2 4-16.4 12.8-16.4zm51.6-7.1l-.6-.1c-.8-.2-1.5-.3-2.4-.3-5 0-9.5 2.9-12 7.7l-.3-6.7h-8.6l.1.8c.3 3.8.4 8 .4 13.8l-.1 31.2h9.6V108c0-1.3.1-2.6.3-3.7 1.1-5.9 5-9.6 10.1-9.6 1 0 1.7.1 2.6.2l1 .1v-8.9zm21.5-.6c-12.7 0-21.6 10.2-21.6 24.7 0 14 8.8 23.1 22.5 23.1 7.2 0 12.2-1.6 15.1-2.9l.6-.3-1.8-7.1-.8.3c-2.6 1.1-6.1 2.1-12 2.1-4.2 0-13.7-1.4-14.3-13.9l30.8.1.1-.6c.2-1 .3-2.3.3-4 .1-9.8-4.9-21.5-18.9-21.5zm-.6 7.3c2.9 0 5.3.9 7 2.7 2.7 2.8 3.2 6.9 3.3 8.9h-21.8c.9-5.6 4.3-11.6 11.5-11.6z" class="st1"/></svg>