<svg xmlns="http://www.w3.org/2000/svg" id="Layer_1" xmlns:xlink="http://www.w3.org/1999/xlink" viewBox="0 0 511.5 167.3"><style>.st0{fill:#A6A8AB;} .st1{clip-path:url(#SVGID_2_);fill:url(#SVGID_3_);} .st2{clip-path:url(#SVGID_2_);fill:url(#SVGID_4_);} .st3{clip-path:url(#SVGID_2_);fill:url(#SVGID_5_);} .st4{clip-path:url(#SVGID_2_);fill:url(#SVGID_6_);} .st5{fill:#F9F9F9;}</style><path d="M511.5 144.7c0 12.5-10.1 22.6-22.6 22.6H22.6C10.1 167.3 0 157.2 0 144.7V22.6C0 10.1 10.1 0 22.6 0h466.3c12.5 0 22.6 10.1 22.6 22.6v122.1z" class="st0"/><g id="PLAY"><defs><path id="SVGID_1_" d="M110.8 73.2l-23-13.3s-42-24.3-44.5-25.7c-2.5-1.4-4.9-.6-4.9 2.4v104.7c0 2.2 1.8 3.2 3.9 2C44.4 142 87.8 117 87.8 117l23.1-13.3 22.2-12.8c2.6-1.5 2.4-3.6.2-4.7s-22.5-13-22.5-13z"/></defs><clipPath id="SVGID_2_"><use xlink:href="#SVGID_1_" overflow="visible"/></clipPath><linearGradient id="SVGID_3_" x1="66.93" x2="66.93" y1="31.77" y2="145.07" gradientUnits="userSpaceOnUse"><stop offset="0" stop-color="#257DB0"/><stop offset=".21" stop-color="#3C90B3"/><stop offset=".74" stop-color="#73BDB9"/><stop offset="1" stop-color="#89CEBC"/></linearGradient><path d="M38.4 31.8v113.3l57.1-56.7z" class="st1"/><linearGradient id="SVGID_4_" x1="38.36" x2="110.84" y1="59.89" y2="59.89" gradientUnits="userSpaceOnUse"><stop offset="0" stop-color="#51BFAC"/><stop offset="1" stop-color="#DEE899"/></linearGradient><path d="M110.8 73.2l-23-13.3-49.4-28.5v.4l57.1 56.6z" class="st2"/><linearGradient id="SVGID_5_" x1="74.6" x2="74.6" y1="88.42" y2="145.49" gradientUnits="userSpaceOnUse"><stop offset="0" stop-color="#EB403D"/><stop offset=".19" stop-color="#D64252"/><stop offset=".74" stop-color="#9F4887"/><stop offset="1" stop-color="#894A9C"/></linearGradient><path d="M38.4 145.1v.4L87.8 117l23-13.4-15.3-15.2z" class="st3"/><linearGradient id="SVGID_6_" x1="116.35" x2="116.35" y1="73.21" y2="103.64" gradientUnits="userSpaceOnUse"><stop offset="0" stop-color="#F48779"/><stop offset=".61" stop-color="#FAB076"/><stop offset="1" stop-color="#FDC674"/></linearGradient><path d="M110.8 73.2L95.5 88.4l15.3 15.2 26.4-15.2z" class="st4"/></g><path d="M398.1 110.6c-2.1 0-4.1-.4-5.9-1.2-1.8-.8-3.3-2-4.5-3.7h-.4c.2 1.9.4 3.7.4 5.5v13.6h-5V77h4.1l.7 4.5h.2c1.3-1.8 2.8-3.1 4.5-3.9 1.7-.8 3.7-1.2 5.9-1.2 4.4 0 7.7 1.5 10.1 4.5 2.4 3 3.6 7.2 3.6 12.6 0 5.4-1.2 9.6-3.6 12.6-2.5 3-5.9 4.5-10.1 4.5zm-.8-29.9c-3.4 0-5.8.9-7.3 2.8s-2.3 4.8-2.3 8.9v1.1c0 4.6.8 7.9 2.3 9.9 1.5 2 4 3 7.4 3 2.8 0 5.1-1.2 6.7-3.5 1.6-2.3 2.4-5.5 2.4-9.5 0-4.1-.8-7.3-2.4-9.5-1.6-2.1-3.8-3.2-6.8-3.2zm26 29.3h-5V63.2h5V110zm28.7 0l-1-4.7h-.2c-1.6 2.1-3.3 3.5-4.9 4.2-1.6.7-3.7 1.1-6.1 1.1-3.3 0-5.8-.8-7.7-2.5-1.9-1.7-2.8-4.1-2.8-7.2 0-6.7 5.3-10.1 16-10.5l5.6-.2v-2c0-2.6-.6-4.5-1.7-5.7-1.1-1.2-2.9-1.8-5.3-1.8-2.7 0-5.9.8-9.3 2.5l-1.5-3.8c1.6-.9 3.4-1.6 5.3-2.1s3.9-.8 5.8-.8c3.9 0 6.8.9 8.7 2.6 1.9 1.7 2.8 4.5 2.8 8.4V110H452zm-11.3-3.5c3.1 0 5.5-.9 7.3-2.6 1.8-1.7 2.7-4.1 2.7-7.2v-3l-5 .2c-4 .1-6.8.8-8.6 1.9-1.8 1.1-2.6 2.8-2.6 5.1 0 1.8.5 3.2 1.6 4.1 1.1 1 2.6 1.5 4.6 1.5zM458.6 77h5.3l7.2 18.8c1.6 4.3 2.6 7.4 2.9 9.3h.2c.3-1 .8-2.8 1.6-5.2.8-2.5 3.6-10.1 8.2-22.8h5.4l-14.2 37.5c-1.4 3.7-3 6.3-4.9 7.9-1.9 1.6-4.2 2.3-6.9 2.3-1.5 0-3-.2-4.5-.5v-4c1.1.2 2.3.4 3.7.4 3.4 0 5.9-1.9 7.3-5.8l1.8-4.7L458.6 77zm-153 3.1c1.6 1.3 4.9 4.1 4.9 9.3 0 5.1-2.9 7.5-5.8 9.8-.9.9-1.9 1.9-1.9 3.4s1 2.3 1.8 3l2.5 1.9c3 2.6 5.8 4.9 5.8 9.7 0 6.5-6.3 13-18.1 13-10 0-14.8-4.8-14.8-9.9 0-2.5 1.2-6 5.3-8.4 4.3-2.6 10.1-3 13.2-3.2-1-1.2-2.1-2.5-2.1-4.7 0-1.2.3-1.9.7-2.7-.8.1-1.5.1-2.2.1-7.3 0-11.4-5.4-11.4-10.8 0-3.2 1.4-6.7 4.4-9.2 3.9-3.2 8.6-3.8 12.3-3.8h14.2l-4.4 2.5h-4.4zm-4.9 30.6c-.6-.1-.9-.1-1.6-.1-.6 0-4.3.1-7.2 1.1-1.5.5-5.9 2.2-5.9 7.1 0 4.9 4.8 8.4 12.1 8.4 6.6 0 10.1-3.2 10.1-7.4 0-3.5-2.2-5.4-7.5-9.1zm2-13.1c1.6-1.6 1.7-3.8 1.7-5 0-5-3-12.7-8.7-12.7-1.8 0-3.7.9-4.8 2.3-1.2 1.4-1.5 3.3-1.5 5.1 0 4.6 2.7 12.3 8.6 12.3 1.8-.1 3.6-.9 4.7-2zm-40.5 12c-10.9 0-16.8-8.5-16.8-16.2 0-9 7.4-16.7 17.8-16.7 10.1 0 16.4 7.9 16.4 16.2.1 8.1-6.2 16.7-17.4 16.7zm8.6-5.6c1.7-2.2 2.1-5 2.1-7.6 0-6.1-2.9-17.6-11.4-17.6-2.3 0-4.5.9-6.2 2.3-2.7 2.4-3.2 5.4-3.2 8.4 0 6.8 3.4 18 11.7 18 2.7 0 5.4-1.3 7-3.5zm-45.9 5.6c-10.9 0-16.8-8.5-16.8-16.2 0-9 7.4-16.7 17.8-16.7 10.1 0 16.4 7.9 16.4 16.2.1 8.1-6.2 16.7-17.4 16.7zm8.6-5.6c1.7-2.2 2.1-5 2.1-7.6 0-6.1-2.9-17.6-11.4-17.6-2.3 0-4.5.9-6.2 2.3-2.7 2.4-3.2 5.4-3.2 8.4 0 6.8 3.4 18 11.7 18 2.7 0 5.4-1.3 7-3.5zm-30.6 4.5l-9.9 2.3c-4 .6-7.6 1.2-11.4 1.2-19.1 0-26.4-14-26.4-25 0-13.4 10.3-25.9 27.9-25.9 3.7 0 7.3.6 10.6 1.5 5.2 1.5 7.6 3.2 9.1 4.3l-5.7 5.5-2.4.6 1.7-2.8c-2.4-2.3-6.6-6.5-14.8-6.5-10.9 0-19.2 8.3-19.2 20.4 0 13 9.4 25.2 24.5 25.2 4.4 0 6.7-.9 8.8-1.7V96.3l-10.4.6 5.5-3h14.7l-1.8 1.7c-.5.4-.6.6-.7 1.1-.1.6-.1 2.6-.1 3.3v8.5z" class="st5"/><path d="M327.5 106.5c-2.3-.2-2.8-.6-2.8-3.3V63.6c.3-2.4 1-2.8 3.1-4.1H318l-5.2 2.5h5.3v42.7c0 1.4-.3 1.6-1.9 3.7h12.2l2.6-1.5c-1.2-.2-2.3-.3-3.5-.4zm28.1.6c-.8.4-1.5.9-2.3 1.2-2.3 1-4.6 1.3-6.7 1.3-2.2 0-5.6-.1-9.1-2.7-4.9-3.4-7-9.3-7-14.5 0-10.6 8.7-15.9 15.7-15.9 2.5 0 5 .6 7.1 1.9 3.4 2.3 4.3 5.2 4.8 6.8L342 91.9l-5.3.4c1.7 8.7 7.6 13.8 14.2 13.8 3.5 0 6-1.2 8.4-2.4l-3.7 3.4zm-6.4-20.4c1.3-.5 2-.9 2-1.9 0-2.7-3.1-5.9-6.8-5.9-2.8 0-7.9 2.1-7.9 9.5 0 1.2.1 2.4.2 3.6l12.5-5.3zm13.1-9.6v4.5h-.6v-4.5h-1.5v-.5h3.5v.5h-1.4zm6.1 4.5V77l-1.4 4.6h-.4l-1.4-4.6v4.6h-.5v-5h.9l1.3 4 1.3-4h.9v5h-.7zM169 47.6h-3.4c0-.5-.3-1.8-1-4h-5c-.7 2.2-1 3.5-1 4h-3.2c0-.3.8-2.6 2.5-6.9 1.7-4.3 2.5-6.7 2.5-7.1h4.1c0 .4.8 2.7 2.3 7 1.4 4.3 2.2 6.6 2.2 7zm-5-6.1c-1.2-3.7-1.8-5.7-1.8-6h-.2c0 .3-.6 2.3-1.9 6h3.9zm18.8 6.1h-2.7c0-.3-1-1.8-3-4.7-2.1-3-3.2-5-3.5-6.1h-.2c.2 1.6.3 3 .3 4.3 0 1.8 0 3.9.2 6.5h-2.6c.1-2.2.2-4.7.2-7.3 0-2.6-.1-4.8-.2-6.7h3.2c0 .4.9 1.9 2.7 4.5 1.9 2.8 3 4.7 3.2 5.7h.2c-.2-1.6-.3-3-.3-4.3 0-1.9-.1-3.9-.2-6h2.7c-.1 1.8-.2 4-.2 6.7.1 2.8.1 5.2.2 7.4zm15.6-7.5c0 2-.7 3.8-2 5.3s-3.1 2.3-5.5 2.3c-1.1 0-2.5 0-4.4-.1.1-2.2.1-4.6.1-7.3 0-2.6 0-4.8-.1-6.7h4.5c2.6 0 4.5.6 5.6 1.9 1.2 1.2 1.8 2.8 1.8 4.6zm-3 .5c0-1.4-.4-2.5-1.2-3.5-.8-.9-2-1.4-3.7-1.4-.3 0-.7 0-1.3.1.1 1.4.1 2.9.1 4.5 0 1.7 0 3.4.1 5.1.5.1.9.1 1.4.1 1.5 0 2.7-.5 3.4-1.4.9-1 1.2-2.2 1.2-3.5zm17.3 7h-3.2c-.8-2.5-1.5-4.1-1.9-4.7-.4-.6-1.2-.9-2.1-.9h-1.2c0 1.8 0 3.7.1 5.6h-3c.1-2.2.1-4.6.1-7.3 0-2.6 0-4.8-.1-6.7h5.1c3.3 0 4.9 1.1 4.9 3.4 0 1.8-.9 3-2.8 3.7v.2c.7.2 1.4.8 1.9 1.7.6.8 1.3 2.5 2.2 5zm-4-9.9c0-1.4-.9-2.1-2.8-2.1-.7 0-1.3.1-1.8.2.1 1.1.1 2.6.1 4.3h1c2.4 0 3.5-.8 3.5-2.4zm19.4 2.6c0 2.2-.7 4-2 5.5-1.3 1.4-3 2.2-5 2.2-1.9 0-3.5-.7-4.7-2-1.3-1.3-1.9-3-1.9-5.1 0-2.2.7-4 2-5.5 1.3-1.4 3-2.2 5-2.2 1.9 0 3.5.7 4.7 2 1.3 1.4 1.9 3.1 1.9 5.1zm-2.9.3c0-1.5-.4-2.7-1.1-3.6-.8-.9-1.7-1.4-2.8-1.4-1 0-1.9.5-2.7 1.4-.7.9-1.1 2.1-1.1 3.6s.4 2.7 1.2 3.6c.8.9 1.7 1.4 2.8 1.4 1 0 1.9-.5 2.7-1.4.6-1 1-2.1 1-3.6zm9 7h-3c.1-2.2.1-4.7.1-7.3 0-2.6 0-4.8-.1-6.7h3c-.1 1.8-.1 4-.1 6.7s0 5.1.1 7.3zm15.6-7.5c0 2-.7 3.8-2 5.3s-3.1 2.3-5.5 2.3c-1.1 0-2.5 0-4.4-.1.1-2.2.1-4.6.1-7.3 0-2.6 0-4.8-.1-6.7h4.5c2.6 0 4.5.6 5.6 1.9 1.2 1.2 1.8 2.8 1.8 4.6zm-3 .5c0-1.4-.4-2.5-1.2-3.5-.8-.9-2-1.4-3.7-1.4-.3 0-.7 0-1.3.1.1 1.4.1 2.9.1 4.5 0 1.7 0 3.4.1 5.1.5.1.9.1 1.4.1 1.5 0 2.7-.5 3.4-1.4.9-1 1.2-2.2 1.2-3.5zm23.6 7H267c0-.5-.3-1.8-1-4h-5c-.7 2.2-1 3.5-1 4h-3.2c0-.3.8-2.6 2.5-6.9 1.7-4.3 2.5-6.7 2.5-7.1h4.1c0 .4.8 2.7 2.3 7 1.5 4.3 2.2 6.6 2.2 7zm-4.9-6.1c-1.2-3.7-1.8-5.7-1.8-6h-.2c0 .3-.6 2.3-1.9 6h3.9zm17.5-4.2c0 1.7-.6 3-1.9 3.8-1.3.8-2.8 1.2-4.7 1.2h-.7c0 1.3 0 3.1.1 5.3h-3c.1-2.1.1-4.5.1-7.3 0-2.6 0-4.8-.1-6.7h5.4c1.4 0 2.5.3 3.4.9.9.6 1.4 1.5 1.4 2.8zm-2.8.5c0-1.5-1-2.3-3.1-2.3-.5 0-1 .1-1.6.2.1 1.4.1 2.9.1 4.6h.6c2.7 0 4-.8 4-2.5zm15.6-.5c0 1.7-.6 3-1.9 3.8-1.3.8-2.8 1.2-4.7 1.2h-.7c0 1.3 0 3.1.1 5.3h-3c.1-2.1.1-4.5.1-7.3 0-2.6 0-4.8-.1-6.7h5.4c1.4 0 2.5.3 3.4.9 1 .6 1.4 1.5 1.4 2.8zm-2.7.5c0-1.5-1-2.3-3.1-2.3-.5 0-1 .1-1.6.2.1 1.4.1 2.9.1 4.6h.6c2.7 0 4-.8 4-2.5zm23.8 2.5c0 2.2-.7 4-2 5.5-1.3 1.4-3 2.2-5 2.2-1.9 0-3.5-.7-4.7-2-1.3-1.3-1.9-3-1.9-5.1 0-2.2.7-4 2-5.5 1.3-1.4 3-2.2 5-2.2 1.9 0 3.5.7 4.7 2 1.3 1.4 1.9 3.1 1.9 5.1zm-3 .3c0-1.5-.4-2.7-1.1-3.6-.8-.9-1.7-1.4-2.8-1.4-1 0-1.9.5-2.7 1.4-.7.9-1.1 2.1-1.1 3.6s.4 2.7 1.2 3.6c.8.9 1.7 1.4 2.8 1.4 1 0 1.9-.5 2.7-1.4.7-1 1-2.1 1-3.6zm17.6 7h-2.7c0-.3-1-1.8-3-4.7-2.1-3-3.2-5-3.5-6.1h-.2c.2 1.6.3 3 .3 4.3 0 1.8 0 3.9.2 6.5H320c.1-2.2.2-4.7.2-7.3 0-2.6-.1-4.8-.2-6.7h3.2c0 .4.9 1.9 2.7 4.5 1.9 2.8 3 4.7 3.2 5.7h.2c-.2-1.6-.3-3-.3-4.3 0-1.9 0-3.9-.2-6h2.7c-.1 1.8-.2 4-.2 6.7 0 2.8.1 5.2.2 7.4z" class="st5"/></svg>