<svg xmlns="http://www.w3.org/2000/svg" id="Layer_1" viewBox="0 0 488.4 283.3"><style>.st0{fill-rule:evenodd;clip-rule:evenodd;fill:#FFCB05;} .st1{fill-rule:evenodd;clip-rule:evenodd;fill:#00A651;} .st2{fill-rule:evenodd;clip-rule:evenodd;fill:#D1363E;} .st3{fill:#ED1C24;} .st4{fill:#00A651;} .st5{fill-rule:evenodd;clip-rule:evenodd;}</style><path d="M224.6 154.7c-.4 19.6 10.9 41.6 4.4 59.6 10.3-13.3 2.5-34.9 3.3-49.7.6-11.6 1.4-22.8.2-37.1-3-35.4-18.5-69.3-12.4-105.1-4.3.9 1.8-10.1-.7-12.3-5.1 8.7-7.1 15.7-8 26-.9 10.1 2.7 29.4-.8 35.9 6.2 4.4 9.8 36.7 11 45.5 1.3 11.6 3.2 25.5 3 37.2" class="st0"/><path d="M340.8 189.8c-2.3-25.5 1.4-50.4-1.5-75.8-1.9-16.4-6.3-31.8-9.9-47.8-1.5-6.5 1.3-40.1-3.2-44-4.6 4-7.7 12.4-9.5 18.1-.1-3.3 3.3-13.5 2-15.5-.5 2-1.4 6.5-2.1 8-4.3-3.5 2.8-13.4 1-17.6-2.5.4-5 .3-7.4 1.1-5.4-6.4-19-4.6-26.7-8.9-.3 1.9-.3 6.7-2.9 7.7-4.6-30.4-22.3 21.6-25 22.2-.3-3 4-28.5 3.3-28.9-.8 1.2-1.8 2.2-3.1 3-.8-1.7-2-5.2-3.6-6.1-.5 1.1-1.2 2-2.1 2.9-14.6-22-28.5 27.4-28 38.9.9 21.5 5.6 42.3 9.4 63.2 2.5 13.6 4.2 27.8 6.8 43.6.7 4.1 1.5 7.5 2.2 11.6 1.1 6.9-1 40.4 3.3 44.3 3.7-21.3 5.5-11.4 7.2 3 1.5.3 4.7.2 6.1 0 0-4-2.7-35.3 2.3-38.7 4.5 9.3-.1 19.4 2.3 28.9 4.1 16.3 7.9 8.5 9.1-4.7 2.4-26.7-8.4-58.8-3.2-84.1 2.1 13.7 1.3 64.2 10.9 67.4-.5-3.3-5.8-35.4-2.5-36.9.8-.4 8.7 60.9 6.2 68.2 21.3 4.9 2.3-26.9 13.8-29.4 1 9.4.6 19.7 1.9 29.4h2.5c0-23-.7-45.7-4-68.4-.1-.5-9.9-55.1-6.3-56.6 10.3 13.2 7.7 42.1 9.7 58.6 2.6 21.6 4.4 44.8 3.6 66.5 9.5 0 17.4 2.5 22.6-4.5 4.4-6 2.9-20.7 3.1-28 .2-7.2-4.6-61.7.7-62.4 1.4 14.9 4 29.6 5.3 44.5.8 8.8-1.8 36.9 5 43.8 1.1-5.6.6-11 .7-16.6z" class="st0"/><path d="M178.5 210.2c2.7-1.3.5-3.5-1.1-3.2-1.9.3.1 3 1.1 3.2" class="st1"/><path d="M448.3 50c.1-.7-.4-.9-2.2-.5v.5h2.2z" class="st2"/><path d="M184.6 212.8c.5-7 .5-14 1.8-21 1.7-9.4 5.6-17.8 7.9-26.9 4.4-17.4 12.5-33.9 17.3-51.3 3.8-13.9 9.1-27.8 11.2-42.1.6-3.9 6.7-44.1.2-45.3-.2 3.6-.5 7.2-.7 10.7-.4-2.8-.7-5.6-1.1-8.4-1.7 7.6-.8 15.7-1.4 23.5-.8 9.5-2.7 18.7-5.3 27.8-4.3 15.5-8.9 31-13.8 46.3-4.2 13.2-8.8 26.1-12.7 39.4-4.5 15.3-5.9 31.4-6.8 47.2 1.1.1 2.5.3 3.4.1z" class="st1"/><path d="M0 283.3v-60.5h23.4c10.2 0 17.8 3 22.8 9s7.6 13 7.6 20.9c0 9-2.7 16.4-8.1 22-5.4 5.7-12.5 8.5-21.1 8.5H0zm18.6-13.9h4.8c3.1 0 5.7-1.5 7.8-4.5 2.1-3 3.2-7 3.2-12.2 0-4.4-.9-8.2-2.8-11.4-1.9-3.2-4.6-4.8-8.1-4.8h-4.8v32.9zM89 283.3l-3.4-11.9H69.3l-3.6 11.9H50.6l18.7-60.5h19.6l19 60.5H89zm-16.5-25.1h9.8l-4.9-17.5-4.9 17.5zm92.5 25.1h-20.3l-10.5-22.9-6.3 8.9v14h-17.5v-60.5H128v25l16.7-25h16.7l-15.3 22.1 18.9 38.4zm40.3 0l-3.4-11.9h-16.2l-3.6 11.9H167l18.7-60.5h19.6l19 60.5h-19zm-16.5-25.1h9.8l-4.9-17.5-4.9 17.5zm91.8 25.1H260l-8.8-23.1h-5.9v23.1h-18.6v-60.5h31.6c7 0 12.4 1.6 16.2 4.9 3.9 3.3 5.8 7.6 5.8 12.9 0 3.5-.7 6.6-2.1 9.2-1.4 2.7-4.3 5-8.6 7.1l11 26.4zm-35.2-36.1h7.9c2.3 0 4.2-.5 5.6-1.5s2.1-2.4 2.1-4.3c0-3.9-2.4-5.8-7.1-5.8h-8.5v11.6zm93.5-9.9v46h-17.6v-46h-12.5v-14.5h42.7v14.5h-12.6zm44.9 46l-3.4-11.9h-16.2l-3.6 11.9h-15.1l18.7-60.5h19.6l19 60.5h-19zm-16.5-25.1h9.8l-4.9-17.5-4.9 17.5zm95.8-35.4l-17.6 28 20.4 32.4h-21.6l-11.2-19-11.3 19h-17l19.5-31.2-18.7-29.2h21.6l9.4 16.3 9.7-16.3h16.8zm25.3 0v60.5h-18.6v-60.5h18.6z"/><path d="M463.1 48c-.5-10.8-11.2-15.6-12.7-19.2-3.6.1-4.2.5-7.4 1.5 2.5 0 3.3 0 5.5.1-13.7 4.4-3.4-.2-6.1 10.8-7.7-3.3-7.1-15.9-15-21.4-9.1-6.3-7.7-2.6-12.5.2-7.6-7.6-14.4-8.4-24.7-6.6-1.2.2-4.9-2.5-6.3-1.7-6.2 3.9-.5 8.3-4 11.2-4.3-1.7-8.3-8.6-11.3-12-2.2 4.7 16.9 22.6 8.7 25.4-3.4-9.6-11.2-28.8-22.1-26.3 2.7 6.7 3.4 13.1 5.1 19.9-2-3.9-6.8-17.3-12.3-19.6 5 11.6 16.7 23.6 12.3 37.8-6.5-8.2-6.7-23.1-16.3-29.9 13.5 39-13.4 73.9-27.2 101.6-9.2 18.4-17.6 34.3-21.3 54.9-1.4 7.8-5 26.5-1 34.2 7.6 14.8 5.6-12.3 12.9-12.2 1.9 15.5.3 16.1 16 16.1-2.9-15.9-1.8-38.4 5.6-52.8.7 10.5-12.9 58.3 6.5 52.8-.1-30.6 5.9-58.5 18.1-86.8 4.6-10.7 10.1-21 15.7-31.2 5.3-9.7 11.4-28.5 19-35.8-3.6 20.3-18.7 37.9-27.6 56-9.9 20.1-18.5 42.9-20.6 65.3-1.1 11.7-2.2 28.3 6.8 32.5 13 6.1 13.1-3 14.6-11.4 2.5-13.7 0-27.6 4.8-41.1 1.9-5.3 6.7-19.6 10.6-23.4-6.8 25.8-12.3 48.5-10.5 75.8h3.3c.5-3.2 2-6.4 2.6-9.6-.6 16.3 27.5 9 37.3 9.6-9.4-63.2 56-105 53.5-164.7-.1-2.1.1 2.4 0 0z" class="st3"/><path d="M213.1 25.7c-2.4 5-7.3-14.6-5.1-12.1-5.3-5.9-21.5-14.9-26-2.1-17.6-7.4-9.9-6.5-13.2 10.4-4.3 22.6-10.5 44.4-18 66.1-5.3 15.4-13.2 35.3-14.4 49.1-.8 9.6 5.7 33.2-4.6 40.8-4.7-2.1 2.5-10.9-3.1-11.5-1 2.1-6.9 25.5-4.1 27.2 2.1-4.5 3.3-10.9 6.7-14.7 8.2 6.8-8.9 27.5 1.2 34 11.2 7.1 10.1-24.1 10.5-27.1 2.4-17.3 7-66.6 24.3-75.1-7.2 33.8-18.2 67.3-17.6 102.2 12.4-5.3-.5-21.7 8.9-29.7 7.5 9.6-3.8 45.6 15.4 21.8 10.8-13.5 8.3-45.8 13.7-63.1 5.6-17.6 46.9-102.6 25.4-116.2-.5 1.1 17 10.8 0 0zm-94.8 20.8c-.5-7.7 6.9-34.3 1.2-40-5.7 1.5-11.3 54.3-13.5 59.8-2.5 6.2-4 12.5-5.7 16.1-7.3 16.2-11.5 30-16.1 49.6-3.5 14.8-4.4 29.7-5.9 44.7-.6 6 1.3 36.9-.6 39.5 5.8-7.9 7.1-35.3 5.8-44-.6 1.2-1.5 2.4-2.5 3.3.3-2.2 10.9-39.5 8.2-38.9 6.1-5.2 8.3-15.3 7.1-23.5 2.4 1.3 5.4-9.1 6.8-13.2 1.2-3.4 15-52.6 18.4-50.6 0-2.3-4.9-4.3-3.2-2.8-.4-7.3.8.7 0 0zm-25 129.3c-.3 0-.1 0 0 0 0 0-.1 0 0 0z" class="st4"/><path d="M160.2 4.1l-2.6 2.6c-2.9-2.1-2.4-9.1-8.5-5.8-8 4.2-7.6 17.3-8.7 24.5-3.9 25.2-11.2 54.1-23.3 76.8-1-14.2 9.6-32.6 12.2-46.7 3.1-17 5.8-35.1 4.6-52.3-7.1 5.1-5 33.5-6.4 41.5-3.7 20.6-11.5 40-18.2 59.7-2.8 8.2-24.3 66.7-16 71.3.4-5.1 3-29 8.7-29.6-.8-.7-1.7-.7-2.6.1.6-5.1 10-16.6 4.8-16.9 8.2-2 9.5-19.1 12.9-25.3 2.9 2.2-11 63.5-11.6 71.7 4.7-1.2 5-21.9 7-25.6 5.1 3.9-4.1 49.2-4.6 54.9 1.8-2.5 3.2-5.1 4.1-8 4.4 2.7.5 29.6 7.6 3.5s7.6-54.2 14.5-80.7c6.6-25.3 16.3-49.8 21.9-75.3 1.2-6 8.8-35.9 4.2-40.4-1 .8.7.7 0 0zM89.5 189.5c-.5 3.6.8 3.3 1.9-3.5-2.6-.1-1.7 2.1-1.9 3.5-.2 1.5.2-1.1 0 0zm2.1-3.6c-.2-.2-.2-.1 0 0-.1-.1 0 0 0 0z" class="st4"/><path d="M92.8 175.9c-1.7.1-2 9.1-1.3 9.9 0-.6 2.3-9.7 1.3-9.9-2.1.1 1 .2 0 0z" class="st4"/><path d="M242 147.5c-35.3-2.4-78.3-12.8-113.4-20.2-6.1-1.3-4.1-.8-9.9-3 33.2-1.7 84.6 11.6 123.3 12.5 2.9 0 5.3 2.4 5.3 5.3.1 3-2.3 5.4-5.3 5.4" class="st5"/><path d="M241.3 118.7c-30.4.3-61.3 8.4-90.9 7.4 22.5-7.7 67.4-16.4 91.2-18 2.9.1 5.3 2.5 5.2 5.5-.1 2.9-2.6 5.2-5.5 5.1m-9.2-21.4C222.4 73.9 219.2 60.7 207 38c-7.5-14-7.6-12-11.7-27.8 11 17 1 1.9 12.8 18.8 17.8 25.6 20.3 36.2 33.5 63.5 1.3 2.6.2 5.8-2.4 7.2-2.6 1.3-5.8.3-7.1-2.4m36.7-19.8c4.7-6.5 54-68.9 57.4-66.7l-.6.6c-14.3 26.1-31.9 47.1-48.1 72.1-1.7 2.4-5 3-7.4 1.4-2.4-1.7-3-5-1.3-7.4" class="st5"/><path d="M254.7 80.1c-18.5-2.4-45.3-49-50.7-64.7 6.2 6.5 44.7 56.3 50.7 54 2.9 0 5.3 2.4 5.3 5.3 0 3-2.3 5.4-5.3 5.4m32.4 12c8.2-25.4 13.7-29.8 26.7-53 3.1-5.5 3.7-5 8.8-7.9-1.8 3.1-3.3 5.7-4.6 9-8.2 20.5-15.4 33.1-20.5 54.5-.7 2.9-3.6 4.6-6.5 3.9-2.9-.7-4.6-3.6-3.9-6.5m-21.9 53.1c3 30 11.6 46.4 26.4 71.9l-7.3-5.5c-15.6-15-26.2-44.6-29.7-65.5-.2-2.9 2-5.5 4.9-5.7 2.9-.3 5.5 1.9 5.7 4.8m37-19.1c20.1-.9 53.9 2.2 74.1 5.5-16.4 6.1-52.2 2.7-72.6 5.1-2.9.4-5.6-1.6-6-4.5-.4-3 1.6-5.7 4.5-6.1m2.1-29.4c14.8 4 30.7 12.6 46.1 18.3 10 3.6 17.6 6.9 27 11.7-11 0-17.9-2.8-28.6-5.4-16.8-4.1-31.7-11.2-47-14.2-2.9-.7-4.7-3.5-4-6.4.8-2.9 3.7-4.7 6.5-4" class="st5"/><path d="M292.8 132.9c-4.8 21.5-3.8 35.9-5.5 57.9-.3 3.6 0 6.5.2 10.1-3.3-4.8-4.1-4.7-4.4-11-1.5-26.5-4.5-32.8-.8-59.3.6-2.9 3.4-4.7 6.3-4.1 2.9.7 4.8 3.5 4.2 6.4" class="st5"/></svg>